<svg width="75" height="70" fill="none" xmlns="http://www.w3.org/2000/svg"><path d="M71 47H5c-3 0-4 2-4 4v4c0 2 1 4 4 4h1v1c0 5 4 10 9 10h45c5 0 9-4 9-10v-1h1c3 0 4-2 4-4v-4c1-2-1-4-3-4Zm-4 13c0 4-3 7-7 7H15c-4 0-7-3-7-7v-1h59v1Zm5-5-1 1H5l-2-1v-4l2-1h65l2 1v4ZM16 38l6 5 5-5 5 5 5-5 6 5 5-5 6 5 5-5 5 5 6-5-1-3-5 4-5-4-5 4-6-4-5 4-6-4-5 4-5-4-5 4-6-4-5 4-5-4-1 3 6 5 5-5ZM9 32h60l1-2v-2C69 13 55 0 38 0 20 0 6 13 6 29v3h3ZM38 3c15 0 28 11 29 26H9C9 14 22 3 38 3Z" fill="#83B3D3"/><path d="m38 17 1-2-1-2-2 2 2 2ZM30 12l2-2-2-2-2 2 2 2ZM45 12l2-2-2-2-2 2 2 2Z" fill="#83B3D3"/></svg>